# MagicaVoxel @ Ephtracy

# group
o 

# material
mtllib Flappy.mtl
usemtl palette

# normals
vn -1 0 0
vn 1 0 0
vn 0 0 1
vn 0 0 -1
vn 0 -1 0
vn 0 1 0

# texcoords
vt 0.00585938 0.5
vt 0.0136719 0.5
vt 0.0175781 0.5
vt 0.0917969 0.5
vt 0.994141 0.5

# verts
v -0.4 1.8 0.1
v -0.4 1.8 -0.1
v -0.4 2 0.1
v -0.4 2 -0.1
v -0.3 1.7 0.1
v -0.3 1.7 -0.1
v -0.3 1.8 0.2
v -0.3 1.8 0.1
v -0.3 1.8 -0.1
v -0.3 1.8 -0.2
v -0.3 2 0.2
v -0.3 2 0.1
v -0.3 2 -0.1
v -0.3 2 -0.2
v -0.3 2.1 0.1
v -0.3 2.1 -0.1
v -0.2 1.8 0.3
v -0.2 1.8 0.2
v -0.2 1.8 -0.2
v -0.2 1.8 -0.3
v -0.2 2 0.3
v -0.2 2 0.2
v -0.2 2 0.1
v -0.2 2 -0.1
v -0.2 2 -0.2
v -0.2 2 -0.3
v -0.2 2.1 0.2
v -0.2 2.1 0.1
v -0.2 2.1 -0.1
v -0.2 2.1 -0.2
v -0.2 2.2 0.1
v -0.2 2.2 -0.1
v 0 2.1 0.2
v 0 2.1 0.1
v 0 2.1 -0.1
v 0 2.1 -0.2
v 0 2.2 0.2
v 0 2.2 0.1
v 0 2.2 -0.1
v 0 2.2 -0.2
v 0 2.3 0.2
v 0 2.3 -0.2
v 0.1 1.8 0.3
v 0.1 1.8 0.2
v 0.1 1.8 -0.2
v 0.1 1.8 -0.3
v 0.1 1.9 0.2
v 0.1 1.9 -0.2
v 0.1 2 0.3
v 0.1 2 0.2
v 0.1 2 -0.2
v 0.1 2 -0.3
v 0.2 1.9 0.2
v 0.2 1.9 0.1
v 0.2 1.9 -0.1
v 0.2 1.9 -0.2
v 0.2 2 0.2
v 0.2 2 0.1
v 0.2 2 -0.1
v 0.2 2 -0.2
v 0.2 2.1 0.2
v 0.2 2.1 0.1
v 0.2 2.1 -0.1
v 0.2 2.1 -0.2
v 0.2 2.2 0.2
v 0.2 2.2 0.1
v 0.2 2.2 -0.1
v 0.2 2.2 -0.2
v 0.2 2.3 0.2
v 0.2 2.3 -0.2
v 0.3 1.7 0.1
v 0.3 1.7 -0.1
v 0.3 1.8 0.2
v 0.3 1.8 0.1
v 0.3 1.8 -0.1
v 0.3 1.8 -0.2
v 0.3 1.9 0.2
v 0.3 1.9 0.1
v 0.3 1.9 -0.1
v 0.3 1.9 -0.2
v 0.3 2 0.1
v 0.3 2 -0.1
v 0.4 1.8 0.1
v 0.4 1.8 -0.1
v 0.4 1.9 0.1
v 0.4 1.9 -0.1
v -0.2 1.8 0.3
v -0.2 2 0.3
v 0 1.8 0.3
v 0 2 0.3
v 0.1 1.8 0.3
v 0.1 2 0.3
v -0.3 1.8 0.2
v -0.3 2 0.2
v -0.2 1.8 0.2
v -0.2 2 0.2
v -0.2 2.1 0.2
v 0 2 0.2
v 0 2.1 0.2
v 0 2.2 0.2
v 0 2.3 0.2
v 0.1 1.8 0.2
v 0.1 1.9 0.2
v 0.1 2 0.2
v 0.1 2.1 0.2
v 0.2 1.8 0.2
v 0.2 1.9 0.2
v 0.2 2 0.2
v 0.2 2.1 0.2
v 0.2 2.2 0.2
v 0.2 2.3 0.2
v 0.3 1.8 0.2
v 0.3 1.9 0.2
v -0.4 1.8 0.1
v -0.4 2 0.1
v -0.3 1.7 0.1
v -0.3 1.8 0.1
v -0.3 2 0.1
v -0.3 2.1 0.1
v -0.2 1.8 0.1
v -0.2 2 0.1
v -0.2 2.1 0.1
v -0.2 2.2 0.1
v 0 2.1 0.1
v 0 2.2 0.1
v 0.2 1.7 0.1
v 0.2 1.8 0.1
v 0.2 1.9 0.1
v 0.2 2 0.1
v 0.3 1.7 0.1
v 0.3 1.8 0.1
v 0.3 1.9 0.1
v 0.3 2 0.1
v 0.4 1.8 0.1
v 0.4 1.9 0.1
v -0.4 1.8 -0.1
v -0.4 2 -0.1
v -0.3 1.7 -0.1
v -0.3 1.8 -0.1
v -0.3 2 -0.1
v -0.3 2.1 -0.1
v -0.2 1.8 -0.1
v -0.2 2 -0.1
v -0.2 2.1 -0.1
v -0.2 2.2 -0.1
v 0 2.1 -0.1
v 0 2.2 -0.1
v 0.2 1.7 -0.1
v 0.2 1.8 -0.1
v 0.2 1.9 -0.1
v 0.2 2 -0.1
v 0.3 1.7 -0.1
v 0.3 1.8 -0.1
v 0.3 1.9 -0.1
v 0.3 2 -0.1
v 0.4 1.8 -0.1
v 0.4 1.9 -0.1
v -0.3 1.8 -0.2
v -0.3 2 -0.2
v -0.2 1.8 -0.2
v -0.2 2 -0.2
v -0.2 2.1 -0.2
v 0 2 -0.2
v 0 2.1 -0.2
v 0 2.2 -0.2
v 0 2.3 -0.2
v 0.1 1.8 -0.2
v 0.1 1.9 -0.2
v 0.1 2 -0.2
v 0.1 2.1 -0.2
v 0.2 1.8 -0.2
v 0.2 1.9 -0.2
v 0.2 2 -0.2
v 0.2 2.1 -0.2
v 0.2 2.2 -0.2
v 0.2 2.3 -0.2
v 0.3 1.8 -0.2
v 0.3 1.9 -0.2
v -0.2 1.8 -0.3
v -0.2 2 -0.3
v 0 1.8 -0.3
v 0 2 -0.3
v 0.1 1.8 -0.3
v 0.1 2 -0.3
v -0.3 1.7 0.1
v 0.2 1.7 0.1
v 0.3 1.7 0.1
v -0.3 1.7 -0.1
v 0.2 1.7 -0.1
v 0.3 1.7 -0.1
v -0.2 1.8 0.3
v 0 1.8 0.3
v 0.1 1.8 0.3
v -0.3 1.8 0.2
v -0.2 1.8 0.2
v 0 1.8 0.2
v 0.1 1.8 0.2
v 0.2 1.8 0.2
v 0.3 1.8 0.2
v -0.4 1.8 0.1
v -0.3 1.8 0.1
v -0.2 1.8 0.1
v 0.2 1.8 0.1
v 0.3 1.8 0.1
v 0.4 1.8 0.1
v -0.4 1.8 -0.1
v -0.3 1.8 -0.1
v -0.2 1.8 -0.1
v 0.2 1.8 -0.1
v 0.3 1.8 -0.1
v 0.4 1.8 -0.1
v -0.3 1.8 -0.2
v -0.2 1.8 -0.2
v 0 1.8 -0.2
v 0.1 1.8 -0.2
v 0.2 1.8 -0.2
v 0.3 1.8 -0.2
v -0.2 1.8 -0.3
v 0 1.8 -0.3
v 0.1 1.8 -0.3
v 0.2 1.9 0.2
v 0.3 1.9 0.2
v 0.2 1.9 0.1
v 0.3 1.9 0.1
v 0.4 1.9 0.1
v 0.2 1.9 -0.1
v 0.3 1.9 -0.1
v 0.4 1.9 -0.1
v 0.2 1.9 -0.2
v 0.3 1.9 -0.2
v -0.2 2 0.3
v 0 2 0.3
v 0.1 2 0.3
v -0.3 2 0.2
v -0.2 2 0.2
v 0 2 0.2
v 0.1 2 0.2
v -0.4 2 0.1
v -0.3 2 0.1
v -0.2 2 0.1
v 0.2 2 0.1
v 0.3 2 0.1
v -0.4 2 -0.1
v -0.3 2 -0.1
v -0.2 2 -0.1
v 0.2 2 -0.1
v 0.3 2 -0.1
v -0.3 2 -0.2
v -0.2 2 -0.2
v 0 2 -0.2
v 0.1 2 -0.2
v -0.2 2 -0.3
v 0 2 -0.3
v 0.1 2 -0.3
v -0.2 2.1 0.2
v 0 2.1 0.2
v -0.3 2.1 0.1
v -0.2 2.1 0.1
v 0 2.1 0.1
v -0.3 2.1 -0.1
v -0.2 2.1 -0.1
v 0 2.1 -0.1
v -0.2 2.1 -0.2
v 0 2.1 -0.2
v -0.2 2.2 0.1
v 0 2.2 0.1
v -0.2 2.2 -0.1
v 0 2.2 -0.1
v 0 2.3 0.2
v 0.2 2.3 0.2
v 0 2.3 -0.2
v 0.2 2.3 -0.2

# faces
f 3/3/1 2/3/1 1/3/1
f 4/3/1 2/3/1 3/3/1
f 8/3/1 6/3/1 5/3/1
f 9/3/1 6/3/1 8/3/1
f 11/2/1 8/2/1 7/2/1
f 12/2/1 8/2/1 11/2/1
f 13/2/1 10/2/1 9/2/1
f 14/2/1 10/2/1 13/2/1
f 15/3/1 13/3/1 12/3/1
f 16/3/1 13/3/1 15/3/1
f 21/2/1 18/2/1 17/2/1
f 22/2/1 18/2/1 21/2/1
f 25/2/1 20/2/1 19/2/1
f 26/2/1 20/2/1 25/2/1
f 27/3/1 23/3/1 22/3/1
f 28/3/1 23/3/1 27/3/1
f 29/3/1 25/3/1 24/3/1
f 30/3/1 25/3/1 29/3/1
f 31/3/1 29/3/1 28/3/1
f 32/3/1 29/3/1 31/3/1
f 37/1/1 34/1/1 33/1/1
f 38/1/1 34/1/1 37/1/1
f 39/1/1 36/1/1 35/1/1
f 40/1/1 36/1/1 39/1/1
f 41/3/1 38/3/1 37/3/1
f 41/3/1 39/3/1 38/3/1
f 41/3/1 40/3/1 39/3/1
f 42/3/1 40/3/1 41/3/1
f 43/3/2 44/3/2 47/3/2
f 45/3/2 46/3/2 48/3/2
f 43/3/2 47/3/2 49/3/2
f 49/3/2 47/3/2 50/3/2
f 48/3/2 46/3/2 51/3/2
f 51/3/2 46/3/2 52/3/2
f 53/1/2 54/1/2 57/1/2
f 57/1/2 54/1/2 58/1/2
f 55/1/2 56/1/2 59/1/2
f 59/1/2 56/1/2 60/1/2
f 57/5/2 58/5/2 61/5/2
f 58/3/2 59/3/2 62/3/2
f 61/5/2 58/5/2 62/5/2
f 59/5/2 60/5/2 63/5/2
f 62/3/2 59/3/2 63/3/2
f 63/5/2 60/5/2 64/5/2
f 61/1/2 62/1/2 65/1/2
f 62/3/2 63/3/2 66/3/2
f 65/1/2 62/1/2 66/1/2
f 63/1/2 64/1/2 67/1/2
f 66/3/2 63/3/2 67/3/2
f 67/1/2 64/1/2 68/1/2
f 65/3/2 66/3/2 69/3/2
f 66/3/2 67/3/2 69/3/2
f 67/3/2 68/3/2 69/3/2
f 69/3/2 68/3/2 70/3/2
f 71/4/2 72/4/2 74/4/2
f 74/4/2 72/4/2 75/4/2
f 73/4/2 74/4/2 77/4/2
f 77/4/2 74/4/2 78/4/2
f 75/4/2 76/4/2 79/4/2
f 79/4/2 76/4/2 80/4/2
f 78/4/2 79/4/2 81/4/2
f 81/4/2 79/4/2 82/4/2
f 83/4/2 84/4/2 85/4/2
f 85/4/2 84/4/2 86/4/2
f 89/2/3 88/2/3 87/2/3
f 90/2/3 88/2/3 89/2/3
f 91/3/3 90/3/3 89/3/3
f 92/3/3 90/3/3 91/3/3
f 95/2/3 94/2/3 93/2/3
f 96/2/3 94/2/3 95/2/3
f 98/3/3 97/3/3 96/3/3
f 99/3/3 97/3/3 98/3/3
f 104/1/3 99/1/3 98/1/3
f 104/1/3 100/1/3 99/1/3
f 105/1/3 100/1/3 104/1/3
f 106/3/3 103/3/3 102/3/3
f 107/1/3 104/1/3 103/1/3
f 107/3/3 103/3/3 106/3/3
f 108/5/3 105/5/3 104/5/3
f 108/1/3 104/1/3 107/1/3
f 109/1/3 100/1/3 105/1/3
f 109/5/3 105/5/3 108/5/3
f 110/3/3 101/3/3 100/3/3
f 110/1/3 100/1/3 109/1/3
f 111/3/3 101/3/3 110/3/3
f 112/4/3 107/4/3 106/4/3
f 113/4/3 107/4/3 112/4/3
f 117/3/3 115/3/3 114/3/3
f 118/3/3 115/3/3 117/3/3
f 120/3/3 117/3/3 116/3/3
f 121/3/3 119/3/3 118/3/3
f 122/3/3 119/3/3 121/3/3
f 124/3/3 123/3/3 122/3/3
f 125/3/3 123/3/3 124/3/3
f 126/3/3 120/3/3 116/3/3
f 127/3/3 120/3/3 126/3/3
f 130/4/3 127/4/3 126/4/3
f 131/4/3 127/4/3 130/4/3
f 132/4/3 129/4/3 128/4/3
f 133/4/3 129/4/3 132/4/3
f 134/4/3 132/4/3 131/4/3
f 135/4/3 132/4/3 134/4/3
f 136/3/4 137/3/4 139/3/4
f 139/3/4 137/3/4 140/3/4
f 138/3/4 139/3/4 142/3/4
f 140/3/4 141/3/4 143/3/4
f 143/3/4 141/3/4 144/3/4
f 144/3/4 145/3/4 146/3/4
f 146/3/4 145/3/4 147/3/4
f 138/3/4 142/3/4 148/3/4
f 148/3/4 142/3/4 149/3/4
f 148/4/4 149/4/4 152/4/4
f 152/4/4 149/4/4 153/4/4
f 150/4/4 151/4/4 154/4/4
f 154/4/4 151/4/4 155/4/4
f 153/4/4 154/4/4 156/4/4
f 156/4/4 154/4/4 157/4/4
f 158/2/4 159/2/4 160/2/4
f 160/2/4 159/2/4 161/2/4
f 161/3/4 162/3/4 163/3/4
f 163/3/4 162/3/4 164/3/4
f 163/1/4 164/1/4 169/1/4
f 164/1/4 165/1/4 169/1/4
f 169/1/4 165/1/4 170/1/4
f 167/3/4 168/3/4 171/3/4
f 168/1/4 169/1/4 172/1/4
f 171/3/4 168/3/4 172/3/4
f 169/5/4 170/5/4 173/5/4
f 172/1/4 169/1/4 173/1/4
f 170/1/4 165/1/4 174/1/4
f 173/5/4 170/5/4 174/5/4
f 165/3/4 166/3/4 175/3/4
f 174/1/4 165/1/4 175/1/4
f 175/3/4 166/3/4 176/3/4
f 171/4/4 172/4/4 177/4/4
f 177/4/4 172/4/4 178/4/4
f 179/2/4 180/2/4 181/2/4
f 181/2/4 180/2/4 182/2/4
f 181/3/4 182/3/4 183/3/4
f 183/3/4 182/3/4 184/3/4
f 188/3/5 186/3/5 185/3/5
f 189/4/5 187/4/5 186/4/5
f 189/3/5 186/3/5 188/3/5
f 190/4/5 187/4/5 189/4/5
f 195/2/5 192/2/5 191/2/5
f 196/3/5 193/3/5 192/3/5
f 196/2/5 192/2/5 195/2/5
f 197/3/5 193/3/5 196/3/5
f 201/2/5 195/2/5 194/2/5
f 202/3/5 196/3/5 195/3/5
f 202/3/5 197/3/5 196/3/5
f 202/2/5 195/2/5 201/2/5
f 202/3/5 198/3/5 197/3/5
f 203/4/5 199/4/5 198/4/5
f 203/3/5 198/3/5 202/3/5
f 204/4/5 199/4/5 203/4/5
f 206/3/5 201/3/5 200/3/5
f 207/3/5 201/3/5 206/3/5
f 210/4/5 205/4/5 204/4/5
f 211/4/5 205/4/5 210/4/5
f 212/2/5 208/2/5 207/2/5
f 213/3/5 209/3/5 208/3/5
f 213/2/5 208/2/5 212/2/5
f 214/3/5 209/3/5 213/3/5
f 215/3/5 209/3/5 214/3/5
f 216/4/5 210/4/5 209/4/5
f 216/3/5 209/3/5 215/3/5
f 217/4/5 210/4/5 216/4/5
f 218/2/5 214/2/5 213/2/5
f 219/3/5 215/3/5 214/3/5
f 219/2/5 214/2/5 218/2/5
f 220/3/5 215/3/5 219/3/5
f 221/4/6 222/4/6 223/4/6
f 223/4/6 222/4/6 224/4/6
f 224/4/6 225/4/6 227/4/6
f 227/4/6 225/4/6 228/4/6
f 226/4/6 227/4/6 229/4/6
f 229/4/6 227/4/6 230/4/6
f 231/2/6 232/2/6 235/2/6
f 232/3/6 233/3/6 236/3/6
f 235/2/6 232/2/6 236/2/6
f 236/3/6 233/3/6 237/3/6
f 234/2/6 235/2/6 239/2/6
f 239/2/6 235/2/6 240/2/6
f 238/3/6 239/3/6 243/3/6
f 243/3/6 239/3/6 244/3/6
f 241/4/6 242/4/6 246/4/6
f 246/4/6 242/4/6 247/4/6
f 244/2/6 245/2/6 248/2/6
f 248/2/6 245/2/6 249/2/6
f 249/2/6 250/2/6 252/2/6
f 250/3/6 251/3/6 253/3/6
f 252/2/6 250/2/6 253/2/6
f 253/3/6 251/3/6 254/3/6
f 255/3/6 256/3/6 258/3/6
f 258/3/6 256/3/6 259/3/6
f 257/3/6 258/3/6 260/3/6
f 260/3/6 258/3/6 261/3/6
f 261/3/6 262/3/6 263/3/6
f 263/3/6 262/3/6 264/3/6
f 265/3/6 266/3/6 267/3/6
f 267/3/6 266/3/6 268/3/6
f 269/3/6 270/3/6 271/3/6
f 271/3/6 270/3/6 272/3/6
